<svg
   width="550"
   height="550"
   viewBox="105 100 400 410"
   fill="none"
   version="1.1"
   id="svg18"
   xmlns="http://www.w3.org/2000/svg"
   xmlns:svg="http://www.w3.org/2000/svg">
  <path
     d="M 100,181.6 C 100,136.534 136.534,100 181.6,100 H 304 c 112.666,0 204,91.334 204,204 0,112.666 -91.334,204 -204,204 -112.666,0 -204,-91.334 -204,-204 z"
     fill="url(#paint0_linear_1016_57)"
     id="path1"
     style="fill:url(#paint0_linear_1016_57)" />
  <path
     fill-rule="evenodd"
     clip-rule="evenodd"
     d="m 204.448,100 h 52.224 v 104.448 h 109.495 c 45.884,0 83.081,37.197 83.081,83.081 0,89.315 -72.404,161.719 -161.719,161.719 -45.884,0 -83.081,-37.197 -83.081,-83.081 V 256.672 H 100 v -52.224 h 104.448 z m 52.224,156.672 v 109.495 c 0,17.042 13.815,30.857 30.857,30.857 60.472,0 109.495,-49.023 109.495,-109.495 0,-17.042 -13.815,-30.857 -30.857,-30.857 z"
     fill="#ffffff"
     fill-opacity="0.5"
     id="path2" />
  <path
     d="m 256.672,150.592 c 0,-14.421 -11.691,-26.112 -26.112,-26.112 -14.421,0 -26.112,11.691 -26.112,26.112 v 53.856 h -53.856 c -14.421,0 -26.112,11.691 -26.112,26.112 0,14.421 11.691,26.112 26.112,26.112 h 53.856 v 53.856 c 0,14.421 11.691,26.112 26.112,26.112 14.421,0 26.112,-11.691 26.112,-26.112 v -53.856 h 53.856 c 14.421,0 26.112,-11.691 26.112,-26.112 0,-14.421 -11.691,-26.112 -26.112,-26.112 h -53.856 z"
     fill="#ffffff"
     fill-opacity="0.7"
     id="path3" />
  <path
     d="m 312.82,226.23 c 3.333,1.924 3.333,6.736 0,8.66 l -14.376,8.3 c -3.334,1.925 -7.5,-0.481 -7.5,-4.33 v -16.6 c 0,-3.849 4.166,-6.255 7.5,-4.33 z"
     fill="#ffffff"
     id="path4" />
  <path
     d="m 234.89,312.82 c -1.924,3.333 -6.736,3.333 -8.66,0 l -8.3,-14.376 c -1.925,-3.333 0.481,-7.5 4.33,-7.5 h 16.6 c 3.849,0 6.255,4.167 4.33,7.5 z"
     fill="#ffffff"
     id="path5" />
  <path
     d="m 226.23,148.3 c 1.924,-3.333 6.736,-3.333 8.66,0 l 8.3,14.376 c 1.925,3.333 -0.481,7.5 -4.33,7.5 h -16.6 c -3.849,0 -6.255,-4.167 -4.33,-7.5 z"
     fill="#ffffff"
     id="path6" />
     <path xmlns="http://www.w3.org/2000/svg" d="m 148.3,234.89 c -3.334,-1.924 -3.334,-6.736 0,-8.66 l 14.376,-8.3 c 3.333,-1.925 7.5,0.481 7.5,4.33 v 16.6 c 0,3.849 -4.167,6.255 -7.5,4.33 z" fill="#ffffff" id="path7"/>
  <defs
     id="defs18">
    <linearGradient
       id="paint0_linear_1016_57"
       x1="100"
       y1="100"
       x2="508"
       y2="508"
       gradientUnits="userSpaceOnUse">
      <stop
         offset="0.0684898"
         stop-color="#0047AB"
         id="stop15" />
      <stop
         offset="0.741212"
         stop-color="#8A2BE2"
         id="stop16" />
    </linearGradient>
    <linearGradient
       id="paint1_linear_1016_57"
       x1="1459.63"
       y1="161.55"
       x2="1459.63"
       y2="218.53"
       gradientUnits="userSpaceOnUse">
      <stop
         stop-color="#59CAFD"
         id="stop17" />
      <stop
         offset="1"
         stop-color="#2B50EF"
         id="stop18" />
    </linearGradient>
  </defs>
</svg>
